<?xml version="1.0" encoding="UTF-8"?>
<svg xmlns="http://www.w3.org/2000/svg" width="900" height="120" viewBox="0 0 900 120">
  <rect width="900" height="120" rx="16" fill="#0D1117" stroke="#30363D"/>
  <text x="36" y="40" font-family="Segoe UI, Helvetica, Arial, sans-serif" font-size="20" font-weight="700" fill="#E6EDF3">Стек</text>
<rect x="36" y="60" width="70" height="30" rx="8" fill="#38BDF8" fill-opacity="0.15" stroke="#38BDF8"/><text x="71.0" y="80" text-anchor="middle" font-family="ui-monospace, SFMono-Regular, Menlo, monospace" font-size="13" fill="#38BDF8">Code</text><rect x="118" y="60" width="70" height="30" rx="8" fill="#38BDF8" fill-opacity="0.15" stroke="#38BDF8"/><text x="153.0" y="80" text-anchor="middle" font-family="ui-monospace, SFMono-Regular, Menlo, monospace" font-size="13" fill="#38BDF8">.env</text><rect x="200" y="60" width="70" height="30" rx="8" fill="#38BDF8" fill-opacity="0.15" stroke="#38BDF8"/><text x="235.0" y="80" text-anchor="middle" font-family="ui-monospace, SFMono-Regular, Menlo, monospace" font-size="13" fill="#38BDF8">root</text><rect x="282" y="60" width="109" height="30" rx="8" fill="#38BDF8" fill-opacity="0.15" stroke="#38BDF8"/><text x="336.5" y="80" text-anchor="middle" font-family="ui-monospace, SFMono-Regular, Menlo, monospace" font-size="13" fill="#38BDF8">VPNHubBot</text><rect x="403" y="60" width="91" height="30" rx="8" fill="#38BDF8" fill-opacity="0.15" stroke="#38BDF8"/><text x="448.5" y="80" text-anchor="middle" font-family="ui-monospace, SFMono-Regular, Menlo, monospace" font-size="13" fill="#38BDF8">/mybots</text><rect x="506" y="60" width="82" height="30" rx="8" fill="#38BDF8" fill-opacity="0.15" stroke="#38BDF8"/><text x="547.0" y="80" text-anchor="middle" font-family="ui-monospace, SFMono-Regular, Menlo, monospace" font-size="13" fill="#38BDF8">locale</text><rect x="600" y="60" width="82" height="30" rx="8" fill="#38BDF8" fill-opacity="0.15" stroke="#38BDF8"/><text x="641.0" y="80" text-anchor="middle" font-family="ui-monospace, SFMono-Regular, Menlo, monospace" font-size="13" fill="#38BDF8">bot.po</text><rect x="694" y="60" width="73" height="30" rx="8" fill="#38BDF8" fill-opacity="0.15" stroke="#38BDF8"/><text x="730.5" y="80" text-anchor="middle" font-family="ui-monospace, SFMono-Regular, Menlo, monospace" font-size="13" fill="#38BDF8">admin</text></svg>
